<svg xmlns="http://www.w3.org/2000/svg" width="30" height="30.638" viewBox="0 0 30 30.638"><defs><style>.a{fill:#fff;}</style></defs><path class="a" d="M25,30.638H5a5.006,5.006,0,0,1-5-5V5A5.006,5.006,0,0,1,5,0H25a5.006,5.006,0,0,1,5,5V25.638A5.005,5.005,0,0,1,25,30.638Zm-6.062-15.6a2.5,2.5,0,0,1,1.8.762,2.955,2.955,0,0,1,.8,2.083v9.052H26.3v-9.7a6.4,6.4,0,0,0-.265-2.376,5.483,5.483,0,0,0-3.439-3.589A5.214,5.214,0,0,0,20.7,10.9a6.077,6.077,0,0,0-4.454,2.363V11.269H12.029V26.933h4.218V18.67a4.074,4.074,0,0,1,1.045-2.834,2.217,2.217,0,0,1,1.6-.8h.049ZM4.214,11.269V26.933H8.446V11.269ZM6.328,3.705a2.7,2.7,0,1,0,2.644,2.7A2.675,2.675,0,0,0,6.328,3.705Z"/></svg>